<?xml version="1.0" standalone="no"?>
<!DOCTYPE svg PUBLIC "-//W3C//DTD SVG 20010904//EN"
 "http://www.w3.org/TR/2001/REC-SVG-20010904/DTD/svg10.dtd">
<svg version="1.0" xmlns="http://www.w3.org/2000/svg"
 width="1120.000000pt" height="1120.000000pt" viewBox="0 0 1120.000000 1120.000000"
 preserveAspectRatio="xMidYMid meet">
<metadata>
Created by potrace 1.14, written by Peter Selinger 2001-2017
</metadata>
<g transform="translate(0.000000,1120.000000) scale(0.100000,-0.100000)"
fill="#000000" stroke="none">
<path d="M3874 8505 c-2 -5 -5 -68 -6 -140 l-3 -130 -120 0 -120 0 -1 -178
c-1 -98 -4 -180 -7 -183 -2 -2 -732 -5 -1621 -5 -1251 0 -1616 -3 -1618 -12
-1 -7 -2 -708 -3 -1559 -1 -1095 2 -1548 9 -1551 6 -2 230 -3 499 -3 426 1
488 -1 491 -14 6 -20 6 -601 0 -620 -4 -14 -79 -16 -672 -15 -367 0 -675 -2
-684 -4 -17 -3 -18 -26 -18 -301 l0 -297 5598 1 5597 1 0 299 0 300 -655 0
-656 0 0 326 0 325 480 0 481 0 2 1562 2 1562 -1577 0 c-867 1 -1603 1 -1635
1 l-59 0 2 43 c1 23 1 105 1 183 l-1 140 -120 -1 c-100 0 -121 2 -124 15 -3 8
-4 60 -4 115 0 55 0 111 -1 125 l-1 25 -1726 0 c-1142 0 -1728 -3 -1730 -10z
m3264 -174 c7 -1 12 -17 12 -44 l0 -44 -1547 1 -1548 1 -3 39 c-2 21 1 42 6
45 8 5 3033 7 3080 2z m260 -366 l3 -91 -1798 1 -1798 0 -3 79 c-2 44 -1 84 1
90 3 8 513 11 1798 11 l1794 0 3 -90z m-6469 -644 l-1 -370 45 -43 c25 -24 82
-77 127 -118 166 -150 166 -150 136 -167 -8 -4 -41 -33 -73 -63 -68 -64 -205
-188 -246 -223 l-29 -24 24 -24 c14 -13 47 -44 74 -68 27 -24 87 -78 134 -121
47 -43 96 -87 110 -99 l25 -21 -66 -62 c-36 -35 -110 -104 -163 -153 l-98 -91
-2 -374 -1 -375 -175 -1 c-96 0 -180 1 -187 3 -9 4 -11 337 -11 1376 0 754 2
1375 4 1379 3 5 88 8 189 8 l184 0 0 -369z m737 35 l0 -328 -40 -38 c-23 -21
-55 -51 -72 -66 -17 -16 -59 -55 -93 -86 -34 -32 -66 -58 -71 -58 -6 0 -18 8
-28 18 -10 9 -62 58 -117 107 -54 50 -106 98 -116 109 -17 17 -18 44 -17 340
0 176 2 324 5 329 2 4 127 6 276 5 l272 -3 1 -329z m674 -38 l0 -370 44 -42
c127 -117 212 -194 242 -220 41 -35 42 -45 6 -73 -15 -12 -44 -37 -63 -55 -19
-18 -77 -71 -128 -118 -52 -47 -105 -96 -118 -108 l-24 -24 43 -38 c24 -20 57
-50 74 -66 17 -16 68 -63 114 -104 100 -90 130 -119 130 -126 0 -3 -14 -17
-32 -32 -30 -26 -100 -90 -231 -212 l-59 -56 -2 -374 -1 -375 -242 -1 -243 0
0 376 0 376 -90 84 c-50 45 -100 92 -113 102 -52 45 -117 111 -117 118 0 5 12
18 28 30 15 12 52 45 83 73 30 29 91 84 133 122 125 111 118 101 84 134 -49
45 -108 99 -183 166 -43 39 -96 86 -117 106 l-38 36 43 39 c24 21 90 82 148
134 57 52 112 104 122 114 16 17 17 51 17 388 l0 369 245 -2 245 -1 0 -370z
m735 39 l1 -329 -110 -101 c-60 -56 -123 -114 -138 -129 l-29 -26 -28 26 c-15
15 -70 65 -121 112 -51 47 -101 93 -110 103 -15 16 -17 50 -15 345 1 180 2
328 3 330 1 1 125 1 275 0 l272 -3 0 -328z m655 -37 l0 -368 53 -50 c28 -27
64 -60 78 -73 15 -13 66 -60 114 -104 l86 -79 -38 -36 c-22 -19 -77 -69 -123
-110 -46 -41 -88 -79 -94 -85 -7 -5 -35 -31 -63 -57 l-52 -48 86 -77 c47 -43
98 -89 113 -103 15 -14 59 -54 98 -89 l70 -64 -56 -51 c-30 -28 -71 -66 -91
-85 -20 -18 -69 -63 -108 -98 l-73 -66 -2 -376 -3 -376 -232 -1 -233 0 -1 45
c0 25 0 194 0 376 l0 329 -53 51 c-29 27 -95 88 -146 135 -121 111 -120 110
-120 118 0 7 16 22 160 152 162 145 190 173 190 186 0 8 -3 14 -7 14 -5 0 -36
26 -69 58 -69 63 -199 181 -251 226 l-34 29 49 46 c27 25 93 87 147 136 54 50
107 98 117 108 20 19 19 2 18 485 l-1 273 236 -2 235 -1 0 -368z m740 35 c0
-274 -2 -335 -14 -342 -12 -7 -179 -159 -241 -220 l-22 -21 -50 46 c-28 26
-91 84 -140 129 l-89 82 1 328 c1 180 3 329 4 331 0 1 125 2 276 2 l275 0 0
-335z m670 -36 l0 -368 46 -43 c26 -24 66 -62 91 -84 24 -23 78 -72 119 -110
l76 -68 -34 -31 c-110 -99 -219 -197 -272 -247 l-61 -58 68 -63 c67 -63 173
-159 249 -226 21 -18 38 -38 38 -45 0 -6 -18 -26 -39 -44 -21 -18 -60 -53 -86
-77 -25 -24 -80 -74 -120 -111 l-75 -68 -2 -375 -3 -376 -242 -1 -241 0 -1
375 0 376 -91 85 c-49 47 -123 115 -163 152 l-72 68 36 32 c21 18 65 58 99 88
34 30 81 73 104 95 24 22 63 58 86 79 36 33 40 41 28 50 -15 11 -159 141 -228
206 -20 19 -55 51 -78 71 -23 20 -42 40 -42 45 0 4 17 23 38 42 77 70 206 188
243 224 l39 36 1 364 c1 199 3 366 5 369 2 4 112 7 244 7 l240 0 0 -369z m740
40 l0 -331 -42 -39 c-24 -22 -65 -61 -93 -85 -27 -25 -70 -65 -95 -89 l-46
-43 -39 35 c-22 19 -85 77 -140 128 l-100 93 1 329 c1 180 2 329 3 331 0 1
125 2 276 2 l275 0 0 -331z m670 -40 l0 -371 39 -37 c21 -20 78 -72 126 -116
49 -44 106 -96 127 -116 l38 -36 -50 -43 c-28 -24 -70 -62 -94 -84 -24 -23
-63 -59 -87 -80 -24 -22 -65 -59 -91 -83 l-47 -43 42 -39 c23 -21 56 -51 72
-66 17 -15 70 -64 119 -108 49 -45 97 -88 107 -95 33 -23 37 -16 -95 -136 -48
-43 -114 -104 -146 -135 l-60 -56 -2 -375 -3 -375 -240 0 -240 0 -2 377 -1
377 -38 33 c-44 38 -117 106 -219 202 l-70 66 25 21 c14 12 50 44 81 73 30 28
95 87 144 131 49 44 94 86 102 93 14 15 12 17 -121 135 -58 51 -90 80 -180
165 -25 23 -46 46 -46 51 0 4 13 19 29 32 24 20 142 129 264 242 l30 28 -1
369 0 369 244 1 244 1 0 -372z m740 41 l0 -328 -34 -33 c-18 -19 -68 -65 -111
-103 -42 -38 -89 -82 -105 -97 l-28 -29 -30 28 c-17 15 -69 63 -117 107 -48
44 -98 89 -111 100 l-24 21 0 331 0 331 280 1 280 0 0 -329z m668 -40 l1 -370
52 -47 c29 -27 68 -63 88 -82 20 -18 71 -65 114 -104 l78 -71 -28 -25 c-15
-14 -73 -66 -128 -116 -55 -49 -107 -97 -115 -105 -8 -8 -34 -31 -56 -51 l-42
-37 58 -53 c93 -88 233 -214 268 -244 17 -15 32 -30 32 -34 0 -10 -22 -32
-141 -141 -57 -52 -121 -111 -142 -130 l-38 -35 -2 -375 -2 -375 -240 0 -240
0 -3 375 -2 375 -48 44 c-26 24 -87 81 -137 126 -49 46 -100 92 -112 103 -30
25 -29 31 11 67 18 16 71 64 116 105 46 41 88 80 94 85 6 6 35 31 63 57 l51
47 -91 85 c-51 46 -112 102 -137 124 -25 22 -67 60 -93 84 l-48 44 43 38 c24
21 86 78 139 127 52 48 107 99 122 111 l27 24 0 372 0 372 244 0 244 0 0 -370z
m742 41 l0 -329 -28 -29 c-16 -15 -64 -59 -107 -98 -43 -38 -90 -82 -106 -97
-15 -16 -31 -28 -36 -28 -9 0 -33 20 -185 162 l-94 87 1 328 c1 180 3 329 4
331 0 1 125 2 276 2 l275 0 0 -329z m636 -38 l-1 -368 36 -35 c19 -19 82 -78
139 -130 57 -52 115 -106 129 -119 l25 -24 -75 -69 c-41 -38 -101 -93 -134
-123 -33 -29 -82 -73 -108 -98 l-49 -44 25 -24 c22 -23 149 -138 261 -239 28
-25 57 -51 65 -59 13 -12 8 -19 -35 -58 -27 -24 -90 -83 -140 -129 -51 -47
-102 -94 -114 -104 -23 -20 -23 -20 -24 -397 l-1 -378 -225 0 -225 0 -2 375
-1 375 -97 90 c-54 50 -128 118 -164 153 l-66 62 25 21 c14 12 50 44 81 73 31
28 95 87 144 131 127 115 120 107 103 119 -13 10 -89 78 -222 199 -88 80 -126
117 -126 123 0 6 21 27 166 159 152 140 154 142 155 172 0 15 0 179 0 363 1
184 3 338 5 342 3 5 106 8 228 8 l223 0 -1 -367z m739 34 l-1 -329 -45 -41
c-168 -156 -222 -202 -233 -202 -7 0 -60 44 -117 97 -58 53 -117 108 -133 121
l-29 25 1 308 c0 170 1 319 1 332 l1 22 277 -2 278 -3 0 -328z m595 -1046 c0
-1094 -3 -1380 -12 -1383 -7 -2 -98 -4 -203 -4 l-190 1 -5 379 -5 378 -41 37
c-22 20 -82 74 -133 121 -51 47 -104 95 -117 107 -13 12 -24 26 -24 31 0 7 48
52 209 198 25 23 69 62 96 88 l50 46 -61 58 c-65 61 -203 187 -268 245 l-40
34 35 31 c19 17 53 48 76 69 22 21 82 76 132 121 l91 84 0 368 0 368 205 1
205 1 0 -1379z m-9150 89 c9 -8 35 -32 57 -52 l42 -37 -92 -84 c-130 -120
-139 -127 -152 -113 -13 12 -167 152 -197 177 -16 14 -17 19 -5 30 17 17 163
150 196 178 l24 21 55 -53 c30 -28 63 -59 72 -67z m1340 64 c25 -23 56 -52 70
-64 68 -59 90 -82 90 -95 0 -8 -3 -15 -7 -15 -5 0 -29 -19 -54 -43 -110 -102
-151 -137 -162 -137 -11 1 -53 37 -180 158 l-48 45 28 25 c44 37 175 156 187
168 13 14 19 11 76 -42z m1401 -6 c25 -24 72 -67 103 -96 l58 -53 -44 -38
c-23 -21 -57 -51 -74 -67 -18 -16 -51 -46 -74 -66 l-42 -37 -66 62 c-36 34
-80 76 -98 93 -17 17 -40 34 -50 38 -16 6 -3 22 81 100 55 51 107 100 115 108
18 18 31 12 91 -44z m2766 45 c32 -29 185 -167 199 -181 14 -13 17 -9 -120
-134 -23 -20 -54 -48 -71 -62 l-29 -25 -56 52 c-30 28 -57 54 -60 57 -3 3 -28
26 -57 52 -42 39 -49 50 -39 60 7 7 50 47 96 88 46 41 90 83 99 93 8 9 16 17
17 17 0 0 10 -8 21 -17z m1493 -73 c40 -36 86 -77 102 -91 l29 -27 -48 -44
c-26 -25 -70 -65 -97 -89 -27 -24 -57 -52 -68 -62 -18 -17 -20 -16 -63 25 -24
24 -75 71 -113 106 l-70 63 46 43 c26 23 67 60 91 82 24 21 54 49 68 62 20 18
27 20 37 10 7 -7 46 -42 86 -78z m1345 29 c27 -25 75 -69 105 -98 l55 -51 -55
-51 c-95 -87 -161 -144 -170 -147 -8 -3 -150 118 -219 186 -12 12 -4 23 59 80
41 37 92 84 114 104 22 20 45 34 50 30 6 -3 33 -27 61 -53z m-4161 -31 c142
-129 135 -112 69 -172 -32 -28 -64 -58 -73 -66 -9 -8 -35 -32 -59 -53 l-42
-38 -27 28 c-15 16 -66 63 -114 105 l-87 77 86 78 c47 43 95 88 107 100 11 12
27 22 35 22 7 1 54 -36 105 -81z m-4293 -595 c9 -10 51 -49 93 -88 43 -38 97
-87 119 -107 l42 -38 1 -330 c0 -327 0 -330 -20 -331 -56 -3 -512 -4 -522 -1
-9 2 -12 94 -12 331 l-1 328 87 80 c170 157 187 172 192 173 3 0 13 -8 21 -17z
m1491 -75 c51 -47 111 -102 133 -121 l40 -36 1 -323 c0 -178 -3 -327 -7 -333
-4 -6 -108 -10 -276 -10 l-268 0 -1 332 -1 332 85 78 c47 43 108 99 136 125
28 26 54 46 58 45 3 -1 48 -41 100 -89z m1374 17 c42 -38 104 -95 136 -125
l58 -55 -2 -330 -3 -329 -265 -1 c-146 -1 -270 1 -276 2 -7 3 -10 106 -10 333
l1 329 64 58 c35 32 96 88 135 125 39 37 74 66 77 65 4 -1 42 -33 85 -72z
m1375 33 c25 -24 87 -81 138 -127 l91 -84 -2 -331 -3 -331 -265 0 c-146 -1
-270 1 -275 2 -6 2 -10 121 -10 333 l0 329 36 33 c20 18 73 67 119 108 45 41
90 83 99 93 8 9 18 17 21 17 3 0 26 -19 51 -42z m1461 -50 c52 -48 113 -104
136 -124 l42 -37 -2 -331 -3 -331 -277 0 -278 -1 0 331 0 332 73 66 c39 36
101 93 137 126 36 33 68 59 72 58 3 -1 49 -41 100 -89z m1359 50 c25 -24 87
-81 137 -127 l92 -84 -2 -330 -3 -331 -255 -1 c-140 0 -264 1 -276 3 -21 4
-21 6 -20 332 l1 328 74 69 c41 37 102 94 135 125 34 32 63 58 66 58 3 0 26
-19 51 -42z m1440 -58 c57 -52 116 -108 133 -123 l30 -28 0 -329 c1 -182 -1
-330 -4 -331 -22 -5 -534 -3 -542 2 -9 6 -16 408 -8 444 1 6 1 15 0 20 -1 6
-2 52 -2 103 0 90 1 95 27 115 15 12 48 42 74 67 98 94 175 160 182 158 4 -2
53 -46 110 -98z m-7718 -1009 c16 -1 17 -23 17 -321 0 -298 -1 -320 -17 -321
-22 -1 -565 -1 -609 0 l-30 1 1 323 c1 177 3 322 4 322 66 0 622 -4 634 -4z
m838 -11 c5 -81 3 -609 -2 -620 -6 -13 -50 -15 -316 -13 -169 1 -311 2 -315 2
-12 1 -10 639 2 643 5 2 149 3 320 3 268 0 310 -2 311 -15z m811 5 c1 -5 2
-151 3 -322 1 -278 0 -313 -14 -314 -22 -1 -592 -1 -612 0 -15 1 -16 34 -17
320 l0 320 26 3 c72 8 612 2 614 -7z m829 5 c6 -22 4 -627 -2 -635 -5 -6 -120
-9 -316 -8 -169 1 -310 2 -313 2 -3 1 -5 144 -5 319 0 298 1 317 18 322 10 3
153 5 318 5 164 0 300 -2 300 -5z m834 -2 c6 -4 10 -125 9 -319 0 -280 -2
-313 -17 -318 -9 -3 -157 -6 -329 -6 l-313 1 -3 314 c-1 173 -1 319 2 325 4
11 634 14 651 3z m792 -1 c6 -4 11 -582 4 -632 -1 -6 -106 -9 -298 -8 -164 1
-302 2 -308 2 -6 1 -10 114 -10 318 l0 318 35 5 c47 7 565 4 577 -3z m834 4
l26 -1 0 -320 c0 -286 -2 -320 -16 -321 -19 -1 -633 -1 -643 0 -5 1 -8 145 -8
320 l0 320 33 3 c26 2 517 2 608 -1z m837 0 c18 -1 18 -641 0 -642 -17 -1
-630 -1 -643 0 -11 1 -14 619 -3 636 5 8 545 13 646 6z m860 -320 l-3 -324
-315 1 c-173 0 -324 1 -335 1 -21 1 -21 6 -21 319 0 300 1 317 19 322 10 3
162 5 338 5 l319 0 -2 -324z m845 320 c16 -1 17 -23 17 -321 0 -176 -3 -320
-7 -321 -21 -2 -659 -4 -668 -2 -15 5 -14 632 2 641 8 5 560 8 656 3z m1357
-916 c3 -49 3 -105 1 -122 l-3 -33 -5428 0 -5428 0 -1 119 c-1 104 1 120 16
123 9 2 2451 3 5427 3 l5411 0 5 -90z"/>
<path d="M154 3090 c-93 -20 -161 -115 -150 -209 7 -62 15 -80 48 -120 69 -81
216 -87 295 -12 80 76 79 220 -2 295 -42 39 -128 59 -191 46z m134 -83 c23
-61 21 -190 -3 -237 -37 -72 -124 -69 -159 5 -23 48 -26 176 -5 227 26 64 58
82 116 64 27 -8 36 -18 51 -59z"/>
<path d="M2550 3082 c-38 -19 -59 -47 -61 -87 -3 -38 27 -96 52 -102 10 -3 19
-8 19 -12 0 -3 15 -12 33 -20 56 -24 97 -60 97 -86 0 -32 -43 -65 -77 -59 -36
7 -83 35 -83 51 0 7 -4 13 -9 13 -5 0 -12 14 -16 31 -10 45 -19 27 -20 -42 0
-58 10 -84 24 -61 4 7 23 7 61 -2 74 -17 118 -6 156 38 31 35 33 50 21 108 -5
25 -33 53 -75 74 -83 42 -122 74 -122 100 0 33 51 57 90 42 35 -13 70 -48 70
-69 0 -10 4 -20 9 -24 12 -7 17 36 12 88 -3 34 -5 36 -16 20 -11 -15 -16 -16
-36 -5 -37 19 -94 21 -129 4z"/>
<path d="M3339 3089 c-45 -7 -89 -31 -116 -62 -20 -23 -56 -120 -48 -129 1 -1
5 -19 8 -39 6 -45 22 -77 59 -112 38 -37 70 -48 139 -48 98 -1 170 51 196 141
9 31 4 122 -8 136 -6 8 -9 14 -5 14 12 0 -40 53 -74 75 -38 24 -96 34 -151 24z
m108 -48 c27 -31 37 -90 30 -174 -7 -83 -10 -92 -33 -118 -41 -46 -97 -41
-134 12 -26 36 -37 171 -19 227 28 89 103 114 156 53z"/>
<path d="M528 3074 c-75 -40 -70 -164 6 -164 29 0 50 31 41 60 -7 20 -39 35
-55 25 -24 -15 -7 40 21 66 34 32 29 36 -13 13z"/>
<path d="M675 3077 c-7 -24 -15 -97 -10 -97 2 0 11 13 20 30 8 16 25 35 38 42
24 13 127 20 127 9 0 -4 -13 -27 -29 -52 -72 -111 -181 -290 -181 -297 0 -8
339 -10 341 -2 1 3 3 19 5 35 1 17 5 42 8 57 3 15 1 30 -4 33 -6 3 -10 -1 -10
-10 0 -25 -30 -65 -63 -81 -25 -14 -84 -19 -150 -15 -17 1 -16 3 2 29 30 42
192 302 197 317 4 10 -26 13 -141 13 -106 1 -147 -2 -150 -11z"/>
<path d="M1025 3080 c-3 -5 4 -7 15 -5 29 6 34 -25 33 -199 -1 -111 -4 -150
-14 -157 -7 -4 -16 -6 -20 -3 -4 2 -10 0 -13 -5 -4 -5 46 -8 122 -7 168 4 222
27 224 96 1 44 -20 77 -60 93 l-34 14 34 20 c21 12 38 32 42 47 9 36 -18 84
-56 100 -35 15 -264 20 -273 6z m218 -41 c9 -12 17 -36 17 -55 0 -36 -24 -59
-71 -67 l-26 -5 1 77 0 78 31 -3 c16 -2 38 -13 48 -25z m5 -169 c12 -12 22
-24 23 -28 0 -4 2 -17 3 -30 4 -32 -28 -78 -57 -84 -43 -8 -51 5 -53 86 l-1
76 32 0 c18 0 41 -9 53 -20z"/>
<path d="M1413 3076 c-3 -6 -3 -8 2 -4 4 4 16 3 26 -3 17 -9 19 -24 19 -175 0
-137 -3 -166 -15 -170 -38 -15 -4 -19 136 -19 133 0 152 2 160 18 6 9 8 21 5
26 -3 4 -1 22 4 39 5 19 5 34 -1 37 -5 4 -9 0 -9 -8 0 -22 -40 -67 -69 -79
-41 -16 -91 -16 -107 -1 -10 10 -13 33 -11 78 2 36 5 67 8 69 14 14 49 -9 59
-40 7 -19 15 -34 19 -34 8 0 8 176 0 185 -4 3 -9 -9 -13 -26 -6 -34 -30 -58
-57 -59 -14 0 -16 12 -15 78 l1 77 53 -2 c58 -1 102 -29 102 -65 0 -10 4 -18
9 -18 5 0 9 25 9 55 l0 54 -154 -1 c-103 0 -156 -4 -161 -12z"/>
<path d="M1800 3078 c0 -6 3 -8 6 -5 4 3 14 2 24 -3 15 -8 17 -29 18 -162 2
-170 -1 -188 -29 -188 -10 0 -19 -3 -19 -8 0 -10 177 -9 187 2 4 5 3 6 -4 3
-26 -15 -43 23 -43 94 0 38 4 69 9 69 6 0 35 -32 66 -72 49 -63 55 -74 41 -84
-9 -6 -16 -13 -16 -15 0 -2 43 -4 95 -4 52 -1 95 2 95 5 0 3 -13 14 -30 23
-16 10 -39 32 -52 50 -29 41 -45 61 -85 107 -18 21 -33 42 -33 47 0 5 16 22
36 38 20 16 55 44 78 62 22 18 46 33 53 33 6 0 14 4 17 9 4 5 -28 9 -71 9 -63
0 -74 -2 -55 -10 32 -16 27 -31 -25 -74 -26 -22 -61 -51 -79 -66 -17 -16 -34
-28 -36 -28 -3 0 -6 32 -7 71 -2 68 10 106 30 93 5 -3 9 0 9 5 0 7 -34 11 -90
10 -58 0 -90 -5 -90 -11z"/>
<path d="M2260 3078 c0 -5 4 -7 9 -4 22 14 28 -29 27 -182 -1 -131 -4 -165
-16 -172 -8 -5 -19 -6 -25 -3 -5 4 -6 2 -2 -3 8 -8 187 -14 187 -6 0 1 -11 7
-25 12 l-25 10 0 164 c0 160 4 184 33 184 5 0 11 3 14 6 3 3 -35 5 -86 4 -50
0 -91 -5 -91 -10z"/>
<path d="M2800 3039 c0 -27 5 -49 10 -49 6 0 9 3 8 8 -1 4 1 17 6 29 7 23 19
29 71 37 l31 6 -1 -166 c0 -146 -2 -167 -18 -178 -9 -7 -17 -15 -17 -17 0 -2
41 -4 90 -4 81 -1 88 1 65 12 -14 8 -25 19 -26 26 0 15 0 239 0 288 1 31 4 36
24 34 43 -3 65 -16 77 -45 7 -17 15 -30 19 -30 5 0 7 55 2 90 -1 6 -64 10
-171 9 l-170 -1 0 -49z"/>
<path d="M3643 3068 l27 -20 0 -153 0 -153 -27 -20 -26 -19 61 1 c33 1 64 5
69 10 4 5 3 6 -4 2 -7 -4 -21 2 -33 14 -18 18 -20 33 -20 152 0 73 4 128 8
123 5 -6 28 -35 53 -65 24 -30 50 -61 57 -68 7 -8 25 -30 40 -50 15 -20 37
-48 49 -62 12 -14 31 -36 42 -49 l21 -24 1 74 c0 41 0 119 -1 174 -1 107 4
135 25 135 8 0 17 5 20 10 4 6 -16 10 -54 9 -34 -1 -61 -6 -61 -10 0 -5 9 -9
19 -9 24 0 28 -21 30 -135 1 -88 1 -90 -16 -65 -10 14 -25 34 -34 45 -26 30
-81 98 -112 138 -27 35 -30 36 -95 36 l-67 0 28 -21z"/>
<path d="M4190 3031 l0 -56 15 30 c21 42 47 61 81 60 l28 0 1 -150 c0 -180 -1
-195 -26 -195 -11 0 -19 -4 -19 -8 0 -4 42 -8 94 -8 52 0 92 4 90 8 -3 5 -9 6
-13 4 -4 -3 -13 -1 -20 3 -10 6 -13 51 -14 175 -1 91 1 167 5 167 55 9 82 -5
104 -56 14 -33 14 -32 17 48 l1 32 -172 1 -172 2 0 -57z"/>
<path d="M4691 3032 c-14 -31 -40 -91 -59 -132 -19 -41 -40 -89 -48 -107 -8
-18 -25 -45 -39 -61 l-24 -29 59 1 c33 0 60 2 60 4 0 1 -11 7 -24 11 -24 10
-26 24 -11 69 4 13 16 22 29 23 29 1 99 1 112 0 14 -1 39 -76 30 -90 -4 -6
-11 -9 -16 -6 -5 3 -11 2 -14 -3 -4 -6 153 -9 173 -3 2 0 -6 9 -18 19 -11 9
-54 93 -96 187 -41 93 -78 171 -82 172 -4 2 -19 -23 -32 -55z m18 -118 c34
-76 33 -78 -26 -79 -29 -1 -53 0 -53 3 0 6 54 122 57 122 1 0 11 -21 22 -46z"/>
<path d="M4962 3078 c14 -6 28 -18 30 -27 2 -9 3 -82 2 -164 -2 -150 -10 -185
-41 -173 -8 3 -12 2 -9 -3 7 -10 182 -9 192 2 5 4 2 6 -6 3 -32 -12 -44 10
-45 85 0 45 4 74 11 76 7 2 38 -33 69 -79 32 -46 59 -85 61 -87 2 -2 30 -5 64
-6 57 -2 78 6 46 18 -15 6 -92 105 -111 142 -9 17 -6 22 20 36 61 33 62 118 2
163 -23 17 -44 20 -169 22 -112 2 -137 0 -116 -8z m215 -31 c8 -8 17 -32 20
-53 7 -54 -21 -89 -75 -92 l-39 -3 1 85 1 84 39 -3 c21 -2 45 -10 53 -18z"/>
<path d="M5360 3080 c0 -5 6 -7 13 -5 6 3 18 1 26 -4 12 -7 15 -41 15 -161 1
-159 -4 -190 -29 -190 -8 0 -15 -3 -15 -7 0 -5 44 -9 98 -9 73 -1 90 1 70 8
-16 5 -28 17 -29 26 -1 10 -2 81 -2 160 -2 139 4 189 21 178 4 -2 14 -1 22 4
10 6 -22 9 -87 9 -57 0 -103 -4 -103 -9z"/>
<path d="M5590 3079 c0 -5 7 -9 15 -9 8 0 15 -4 15 -9 0 -5 6 -16 13 -23 26
-28 109 -158 105 -166 -11 -30 -101 -129 -138 -153 -23 -15 -21 -16 47 -15 39
1 69 4 66 9 -2 4 -11 7 -19 7 -26 0 -14 44 25 90 22 25 41 43 44 40 2 -3 21
-30 41 -60 31 -47 34 -57 21 -66 -8 -6 -15 -13 -15 -16 0 -3 164 -3 180 1 3 1
-10 10 -27 21 -18 11 -33 26 -33 34 0 8 -4 16 -8 18 -4 2 -30 35 -56 75 l-48
72 48 58 c62 73 84 94 95 87 5 -3 9 -1 9 5 0 6 -28 10 -71 10 -61 -1 -68 -3
-49 -12 13 -7 22 -15 21 -19 0 -5 -1 -14 -1 -21 0 -7 -14 -30 -31 -50 l-32
-38 -33 47 c-39 54 -41 69 -16 83 12 8 -8 10 -75 10 -51 -1 -93 -5 -93 -10z"/>
<path d="M6025 3078 c11 -6 23 -15 26 -20 3 -5 5 -81 5 -169 -1 -128 -4 -162
-16 -169 -8 -5 -18 -6 -24 -3 -5 3 -6 2 -3 -4 7 -11 173 -12 181 0 3 4 3 5 0
2 -4 -2 -15 0 -25 6 -17 9 -19 24 -19 173 0 140 2 166 17 177 9 8 17 12 19 9
1 -3 6 -2 10 2 4 4 -38 7 -92 7 -77 0 -95 -3 -79 -11z"/>
<path d="M6380 3080 c0 -5 7 -7 15 -4 22 9 29 -35 28 -200 0 -112 -4 -150 -14
-156 -7 -5 -16 -7 -20 -4 -4 2 -10 1 -12 -4 -7 -10 197 -8 243 2 78 18 131 88
134 177 4 86 -42 155 -121 183 -46 16 -253 21 -253 6z m222 -37 c29 -26 48
-79 49 -137 3 -94 -22 -158 -64 -172 -69 -24 -71 -18 -73 158 0 84 4 159 9
165 12 17 54 9 79 -14z"/>
<path d="M6926 2957 c-76 -172 -94 -209 -117 -229 -11 -9 -19 -18 -19 -21 0
-2 27 -4 60 -3 33 0 60 2 60 3 0 2 -11 8 -25 13 -26 10 -28 27 -10 73 8 20 5
19 70 19 81 1 81 0 93 -41 15 -49 15 -51 -2 -51 -8 0 -17 -3 -20 -8 -2 -4 36
-7 85 -8 l89 0 -24 26 c-13 14 -56 100 -96 193 -40 92 -75 167 -79 167 -3 0
-32 -60 -65 -133z m78 -116 c-7 -8 -104 -8 -104 0 0 3 12 33 27 65 l27 59 26
-60 c15 -33 26 -62 24 -64z"/>
<path d="M7134 3079 c-3 -5 1 -9 9 -9 14 0 38 -47 120 -239 29 -69 58 -126 65
-129 7 -2 12 1 12 6 0 5 12 36 27 68 15 33 28 61 28 64 1 3 18 40 38 83 20 42
37 81 37 86 0 5 14 23 30 41 17 18 30 34 30 36 0 1 -28 3 -62 3 -61 -1 -62 -1
-35 -15 20 -11 26 -21 23 -37 -5 -30 -83 -202 -92 -202 -10 0 -95 206 -92 224
2 9 8 16 15 16 6 0 14 3 18 6 3 4 -33 7 -80 7 -47 -1 -88 -5 -91 -9z"/>
<path d="M7570 3080 c0 -4 8 -10 18 -12 16 -5 18 -19 18 -171 -1 -91 -4 -168
-7 -172 -4 -3 -16 -7 -27 -8 -12 0 -19 -4 -16 -6 7 -8 334 -9 335 -2 1 3 3 15
4 26 2 11 6 37 9 58 6 46 -8 49 -24 5 -15 -45 -52 -70 -107 -72 -74 -3 -75 -1
-75 173 1 146 9 190 32 176 5 -3 11 -1 15 5 4 6 -27 9 -85 9 -49 0 -90 -4 -90
-9z"/>
<path d="M8070 2948 c-83 -190 -81 -187 -111 -217 l-26 -27 58 0 c33 0 59 4
59 8 0 4 -7 8 -15 8 -23 0 -28 24 -12 61 14 34 15 34 73 32 32 -1 63 -2 67 -2
4 -1 15 -17 23 -37 12 -27 12 -39 3 -50 -6 -7 -16 -11 -23 -7 -6 3 -7 2 -3 -3
5 -5 47 -9 95 -10 84 -1 85 -1 64 16 -12 10 -35 47 -51 81 -25 55 -44 99 -114
262 -7 15 -15 27 -18 27 -3 0 -34 -64 -69 -142z m80 -102 c0 -13 -83 -16 -95
-4 -4 3 5 32 20 64 l26 57 25 -52 c13 -29 24 -58 24 -65z"/>
<path d="M8329 3082 c-6 -34 -4 -100 3 -96 4 3 8 11 8 18 0 28 35 57 70 59
l35 2 3 -162 c2 -137 0 -163 -14 -177 -8 -9 -21 -13 -27 -9 -7 3 -8 2 -4 -3 4
-4 49 -9 99 -10 67 -1 86 1 72 9 -11 6 -22 14 -25 20 -12 17 -8 322 4 329 14
8 56 0 75 -15 7 -6 19 -24 27 -41 13 -31 13 -31 14 25 l1 57 -170 1 c-93 0
-171 -3 -171 -7z"/>
<path d="M8860 3077 c0 -6 3 -7 7 -4 3 4 12 2 20 -4 10 -9 13 -49 13 -169 0
-139 -2 -159 -18 -173 -10 -10 -21 -16 -23 -15 -2 2 -3 1 -1 -2 7 -9 112 -8
112 2 0 5 -4 7 -9 4 -4 -3 -15 2 -23 12 -12 13 -15 50 -16 167 -1 162 -3 159
39 60 4 -11 23 -54 42 -95 19 -41 40 -92 47 -112 8 -21 17 -38 21 -38 7 0 42
70 54 110 4 14 11 30 15 35 4 6 22 47 40 93 18 45 35 84 39 86 3 2 6 -62 6
-144 0 -108 -4 -152 -14 -164 -7 -9 -17 -14 -21 -11 -5 3 -11 2 -14 -3 -6 -11
181 -9 191 2 4 5 3 6 -4 2 -7 -4 -20 1 -30 11 -16 16 -18 37 -17 163 1 163 6
190 34 185 11 -2 20 0 20 5 0 5 -35 9 -79 8 l-78 -1 -33 -81 c-17 -45 -38 -94
-45 -111 -7 -16 -15 -37 -18 -45 -5 -16 -7 -13 -74 145 l-39 90 -72 2 c-45 0
-72 -3 -72 -10z"/>
<path d="M9418 3077 c12 -5 22 -17 23 -26 0 -9 2 -74 3 -146 3 -140 9 -161 57
-189 38 -23 126 -24 166 -3 58 31 65 53 68 200 2 137 6 157 31 157 8 0 14 5
14 10 0 6 -24 10 -60 9 -33 -1 -60 -4 -60 -6 0 -2 11 -8 25 -13 25 -9 25 -10
25 -140 0 -129 -6 -157 -37 -189 -22 -22 -91 -17 -116 7 -19 19 -21 32 -21
167 0 114 3 148 14 155 8 5 17 7 21 4 4 -2 10 0 13 5 4 6 -34 9 -91 9 -76 0
-93 -3 -75 -11z"/>
<path d="M9850 3087 c-13 -114 -13 -113 4 -92 8 11 16 25 16 31 0 18 51 37
108 40 62 4 68 23 -58 -181 -48 -77 -92 -149 -97 -160 -11 -20 -9 -21 157 -20
93 0 172 3 176 7 4 4 8 27 10 50 2 23 5 47 8 54 3 7 2 15 -1 18 -3 3 -14 -11
-24 -32 -26 -52 -63 -71 -148 -76 l-72 -4 27 47 c15 25 40 65 55 89 16 24 29
45 29 48 0 3 13 24 28 47 16 23 41 63 56 88 l26 46 -150 1 c-82 1 -150 0 -150
-1z"/>
<path d="M10223 3074 l27 -15 -2 -167 c-3 -165 -3 -167 -25 -170 -13 -2 -23
-6 -23 -10 0 -8 316 -9 324 -1 3 3 8 23 11 45 3 21 8 44 10 51 2 7 0 15 -5 18
-6 4 -10 -3 -10 -13 0 -23 -62 -82 -88 -83 -9 0 -30 -2 -46 -3 -43 -3 -52 14
-52 89 1 57 4 69 18 71 21 3 58 -40 58 -67 0 -10 3 -20 8 -22 9 -6 10 189 1
198 -4 3 -10 -10 -13 -29 -7 -34 -29 -56 -58 -56 -11 0 -14 19 -13 78 l0 77
54 -2 c59 -2 85 -18 106 -68 12 -29 13 -27 12 32 l-1 62 -160 -1 c-147 0 -158
-1 -133 -14z"/>
<path d="M10601 3067 c13 -12 29 -31 35 -42 96 -177 97 -178 97 -232 0 -59 -8
-73 -41 -76 -12 0 -19 -3 -16 -6 3 -3 52 -6 109 -6 58 -1 99 3 92 7 -6 4 -20
8 -29 8 -19 0 -21 11 -20 101 0 38 11 63 62 147 34 56 68 102 76 102 8 0 14 4
14 10 0 5 -24 9 -54 9 -53 -2 -54 -2 -34 -18 21 -17 21 -17 -27 -100 -26 -45
-51 -79 -55 -74 -10 10 -90 159 -90 167 0 3 7 6 15 6 8 0 15 4 15 10 0 6 -36
9 -87 9 l-86 -1 24 -21z"/>
<path d="M11006 3081 c-3 -4 5 -8 16 -8 11 -1 23 -5 26 -8 7 -7 11 -304 4
-323 -2 -7 -15 -18 -29 -26 -22 -11 -13 -12 70 -12 53 1 99 5 104 10 4 5 3 6
-3 3 -6 -4 -19 -1 -29 7 -16 11 -18 31 -18 169 0 113 3 160 12 171 7 9 17 14
21 11 5 -3 11 -1 15 4 3 6 -32 10 -90 9 -52 0 -97 -3 -99 -7z"/>
</g>
</svg>
